<svg width="22" height="21" viewBox="0 0 22 21" fill="none" xmlns="http://www.w3.org/2000/svg">
<path d="M11.0006 2.44953L10.5458 2.98172C10.8077 3.20547 11.1934 3.20547 11.4553 2.98172L11.0006 2.44953ZM2.77648 2.77648L2.28151 2.28151L2.77648 2.77648ZM19.2246 2.77648L19.7196 2.28151L19.2246 2.77648ZM19.2246 11.3541L19.7196 11.8491L19.2246 11.3541ZM11.3541 19.2246L11.8491 19.7196L11.8491 19.7196L11.3541 19.2246ZM10.647 19.2246L10.152 19.7196L10.152 19.7196L10.647 19.2246ZM2.77648 11.3541L2.28151 11.8491L2.77648 11.3541ZM11.4553 1.91734C8.7967 -0.354274 4.79602 -0.232999 2.28151 2.28151L3.27146 3.27146C5.2652 1.27772 8.4384 1.18103 10.5458 2.98172L11.4553 1.91734ZM19.7196 2.28151C17.2051 -0.232999 13.2044 -0.354274 10.5458 1.91734L11.4553 2.98172C13.5627 1.18103 16.7359 1.27772 18.7296 3.27146L19.7196 2.28151ZM19.7196 11.8491C22.3616 9.20707 22.3616 4.92352 19.7196 2.28151L18.7296 3.27146C20.8249 5.36674 20.8249 8.76385 18.7296 10.8591L19.7196 11.8491ZM11.8491 19.7196L19.7196 11.8491L18.7296 10.8591L10.8591 18.7296L11.8491 19.7196ZM11.0006 20.0711C11.3188 20.0711 11.624 19.9446 11.8491 19.7196L10.8591 18.7296C10.8966 18.6921 10.9475 18.6711 11.0006 18.6711V20.0711ZM10.152 19.7196C10.3771 19.9446 10.6823 20.0711 11.0006 20.0711V18.6711C11.0536 18.6711 11.1045 18.6921 11.142 18.7296L10.152 19.7196ZM2.28151 11.8491L10.152 19.7196L11.142 18.7296L3.27146 10.8591L2.28151 11.8491ZM2.28151 2.28151C-0.360503 4.92352 -0.360503 9.20707 2.28151 11.8491L3.27146 10.8591C1.17618 8.76385 1.17618 5.36674 3.27146 3.27146L2.28151 2.28151Z" fill="#4B5563"/>
</svg>
