<svg width="22" height="22" viewBox="0 0 22 22" fill="none" xmlns="http://www.w3.org/2000/svg">
<path d="M13.6373 2.91492C13.7346 2.91506 13.8309 2.94242 13.9208 2.99544C14.0106 3.04845 14.0921 3.12608 14.1607 3.22385L19.6485 10.902L14.1675 18.7678C14.0989 18.8688 14.0166 18.9491 13.9256 19.0039C13.8346 19.0587 13.7367 19.087 13.6378 19.087C13.5386 19.0882 13.4402 19.0615 13.3483 19.0085C13.2564 18.9556 13.1729 18.8773 13.1024 18.7783C13.032 18.6794 12.9761 18.5616 12.9379 18.4318C12.8998 18.3021 12.8801 18.1629 12.8801 18.0223V14.0993C12.8801 14.0993 11.9184 13.4182 10.2923 13.4182C8.39463 13.4182 5.59153 14.345 2.35151 18.3619C2.35151 18.3619 3.85553 7.70539 12.8801 7.70539V3.9828C12.8798 3.84201 12.8992 3.70254 12.9372 3.57245C12.9752 3.44236 13.031 3.32424 13.1015 3.22493C13.1719 3.12562 13.2555 3.04708 13.3475 2.99387C13.4395 2.94065 13.538 2.91382 13.6373 2.91492ZM13.6373 1C13.1002 0.999223 12.5831 1.28867 12.1914 1.80937C11.9807 2.08692 11.813 2.4235 11.6989 2.79776C11.5849 3.17201 11.5269 3.57578 11.5288 3.98344V5.86835C9.79596 6.07069 8.21761 6.67006 6.82349 7.6556C5.4068 8.65518 4.16151 10.0817 3.17491 11.8352C1.48621 14.8308 1.04522 17.8589 1.02631 17.9866C0.970854 18.379 1.00356 18.7861 1.11982 19.1509C1.23608 19.5156 1.43005 19.8195 1.67449 20.02C1.91892 20.2204 2.20154 20.3073 2.48261 20.2684C2.76369 20.2295 3.02911 20.0668 3.24158 19.8032C6.22125 16.108 8.7203 15.335 10.2923 15.335C10.7075 15.3331 11.1217 15.3902 11.5288 15.5055V18.0223C11.5274 18.4294 11.5857 18.8324 11.6998 19.2059C11.8139 19.5795 11.9815 19.9154 12.1919 20.1925C12.584 20.7122 13.1009 21.0008 13.6378 21C13.9156 21.0004 14.1906 20.9219 14.4467 20.7694C14.7027 20.6168 14.9346 20.3931 15.1287 20.1115L20.6102 12.2476C20.7349 12.0686 20.8335 11.8566 20.9004 11.6236C20.9673 11.3907 21.0011 11.1413 21 10.8898C20.9988 10.6383 20.9628 10.3896 20.8938 10.1579C20.8248 9.92614 20.7243 9.71593 20.598 9.53924L15.1098 1.86171C14.7189 1.30949 14.1893 0.999589 13.6373 1Z" fill="#4B5563" stroke="white" stroke-width="0.2" stroke-linecap="round" stroke-linejoin="round"/>
</svg>
