<svg width="24" height="24" viewBox="0 0 24 24" fill="none" xmlns="http://www.w3.org/2000/svg">
<path d="M15.3331 7H13.9961V8.42858H15.3331V7Z" fill="#4B5563"/>
<path d="M11.9893 7H10.6523V8.42858H11.9893V7Z" fill="#4B5563"/>
<path d="M18.6729 7H17.3359V8.42858H18.6729V7Z" fill="#4B5563"/>
<g clip-path="url(#clip0_195_403)">
<path d="M14.0817 12.7716L14.5292 12.2333L14.3 12.0428L14.0039 12.0759L14.0817 12.7716ZM17.2511 15.4062L16.8036 15.9445C17.0135 16.119 17.3056 16.1556 17.552 16.0383C17.7984 15.921 17.9541 15.6712 17.951 15.3983L17.2511 15.4062ZM17.222 12.8287L16.5219 12.8287L16.522 12.8366L17.222 12.8287ZM17.222 12.8232L17.0536 12.1438L16.522 12.2755V12.8232H17.222ZM20.1794 10.8968L19.6163 10.4809L19.5945 10.5105L19.5758 10.5422L20.1794 10.8968ZM21.1475 7.53623L20.4491 7.58334L20.4491 7.58341L21.1475 7.53623ZM19.7344 4.35281L20.2325 3.86099L20.2325 3.86094L19.7344 4.35281ZM16.6338 3.00012L16.6475 2.30022L16.6407 2.30015L16.6338 3.00012ZM16.622 3L16.6289 2.3H16.622V3ZM9.33673 4.44529L8.82564 3.96696L8.82564 3.96697L9.33673 4.44529ZM9.33673 11.3263L9.90159 10.9128L9.87666 10.8788L9.84782 10.848L9.33673 11.3263ZM17.922 12.8287V12.8232H16.522V12.8287H17.922ZM20.7424 11.3127C21.5505 10.2187 21.9382 8.85514 21.8459 7.48905L20.4491 7.58341C20.5196 8.6273 20.2221 9.66084 19.6163 10.4809L20.7424 11.3127ZM21.8459 7.48911C21.7537 6.12279 21.186 4.8267 20.2325 3.86099L19.2363 4.84463C19.9454 5.56277 20.3787 6.5395 20.4491 7.58334L21.8459 7.48911ZM20.2325 3.86094C19.2765 2.89297 17.9995 2.32682 16.6475 2.30025L16.62 3.69998C17.5939 3.71912 18.5272 4.12666 19.2363 4.84467L20.2325 3.86094ZM16.6407 2.30015L16.6289 2.30003L16.6151 3.69997L16.6269 3.70008L16.6407 2.30015ZM16.622 2.3H12.611V3.7H16.622V2.3ZM12.611 2.3C11.1735 2.3 9.81395 2.91097 8.82564 3.96696L9.84782 4.92361C10.5819 4.13923 11.576 3.7 12.611 3.7V2.3ZM8.82564 3.96697C7.83999 5.02014 7.3 6.43115 7.3 7.88579H8.7C8.7 6.77354 9.11359 5.70813 9.84782 4.92361L8.82564 3.96697ZM7.3 7.88579C7.3 9.34041 7.83999 10.7514 8.82564 11.8046L9.84782 10.848C9.11359 10.0634 8.7 8.99802 8.7 7.88579H7.3ZM13.6342 13.3099L16.8036 15.9445L17.6986 14.868L14.5292 12.2333L13.6342 13.3099ZM17.951 15.3983L17.9219 12.8208L16.522 12.8366L16.5511 15.4142L17.951 15.3983ZM17.3904 13.5026C17.8035 13.4003 18.4381 13.1757 19.065 12.8228C19.6838 12.4745 20.3656 11.9618 20.7829 11.2514L19.5758 10.5422C19.3367 10.9492 18.8959 11.3114 18.3783 11.6028C17.8686 11.8897 17.3528 12.0696 17.0536 12.1438L17.3904 13.5026ZM14.0039 12.0759C13.4985 12.1324 12.6564 12.1364 11.8305 11.9599C10.9898 11.7802 10.288 11.4407 9.90159 10.9128L8.77187 11.7397C9.45486 12.6728 10.5575 13.1195 11.5379 13.329C12.5332 13.5417 13.5288 13.5378 14.1594 13.4673L14.0039 12.0759Z" fill="#4B5563"/>
<path d="M15.3292 7H13.9922V8.42859H15.3292V7Z" fill="#4B5563"/>
<path d="M11.9893 7H10.6523V8.42859H11.9893V7Z" fill="#4B5563"/>
<path d="M18.6729 7H17.3359V8.42859H18.6729V7Z" fill="#4B5563"/>
<path d="M10 19L10 18.3L9.77755 18.3L9.59591 18.4284L10 19ZM7.17099 18.5233H7.87099C7.87099 18.1574 7.58917 17.8532 7.22432 17.8253L7.17099 18.5233ZM5.8144 9.62632C6.16031 9.45368 6.30076 9.03331 6.12812 8.6874C5.95548 8.34149 5.53511 8.20103 5.1892 8.37368L5.8144 9.62632ZM7.17099 21H6.47099C6.47099 21.2616 6.61685 21.5014 6.84917 21.6216C7.08148 21.7419 7.36147 21.7226 7.57508 21.5716L7.17099 21ZM15.5632 17.5427C15.7928 17.2317 15.7268 16.7935 15.4158 16.5638C15.1047 16.3342 14.6665 16.4002 14.4368 16.7112L15.5632 17.5427ZM7.22432 17.8253C7.05269 17.8122 6.73758 17.71 6.32539 17.4636C5.92863 17.2264 5.49606 16.8878 5.09684 16.4753C4.28258 15.6341 3.7 14.5868 3.7 13.5714H2.3C2.3 15.0957 3.14741 16.4743 4.0909 17.449C4.57055 17.9446 5.0988 18.3614 5.607 18.6652C6.09978 18.9599 6.63379 19.1843 7.11766 19.2212L7.22432 17.8253ZM3.7 13.5714C3.7 11.3255 5.02349 10.0211 5.8144 9.62632L5.1892 8.37368C3.97651 8.97893 2.3 10.738 2.3 13.5714H3.7ZM6.47099 18.5233V21H7.87099V18.5233H6.47099ZM7.57508 21.5716L10.4041 19.5716L9.59591 18.4284L6.7669 20.4284L7.57508 21.5716ZM10 19.7C10.5439 19.7 11.5585 19.634 12.6086 19.3485C13.6425 19.0674 14.8249 18.5427 15.5632 17.5427L14.4368 16.7112C13.9751 17.3366 13.1575 17.7485 12.2414 17.9975C11.3415 18.2422 10.4561 18.3 10 18.3L10 19.7Z" fill="#4B5563"/>
</g>
<defs>
<clipPath id="clip0_195_403">
<rect width="20" height="20" fill="white" transform="translate(2 2)"/>
</clipPath>
</defs>
</svg>
